<svg width="76" height="71" viewBox="0 0 76 71" fill="none" xmlns="http://www.w3.org/2000/svg">
<path d="M7.896 0.367782C8.184 0.895782 8.512 1.55178 8.88 2.33578C9.264 3.10378 9.656 3.94378 10.056 4.85578C10.472 5.75178 10.88 6.67178 11.28 7.61578C11.68 8.55978 12.056 9.44778 12.408 10.2798C12.76 9.44778 13.136 8.55978 13.536 7.61578C13.936 6.67178 14.336 5.75178 14.736 4.85578C15.152 3.94378 15.544 3.10378 15.912 2.33578C16.296 1.55178 16.632 0.895782 16.92 0.367782H20.328C20.488 1.47178 20.632 2.71178 20.76 4.08778C20.904 5.44778 21.024 6.87178 21.12 8.35978C21.232 9.83178 21.328 11.3118 21.408 12.7998C21.504 14.2878 21.584 15.6878 21.648 16.9998H18C17.952 15.3838 17.888 13.6238 17.808 11.7198C17.728 9.81578 17.608 7.89578 17.448 5.95978C17.16 6.63178 16.84 7.37578 16.488 8.19178C16.136 9.00778 15.784 9.82378 15.432 10.6398C15.096 11.4558 14.768 12.2398 14.448 12.9918C14.128 13.7278 13.856 14.3598 13.632 14.8878H11.016C10.792 14.3598 10.52 13.7278 10.2 12.9918C9.88 12.2398 9.544 11.4558 9.192 10.6398C8.856 9.82378 8.512 9.00778 8.16 8.19178C7.808 7.37578 7.488 6.63178 7.2 5.95978C7.04 7.89578 6.92 9.81578 6.84 11.7198C6.76 13.6238 6.696 15.3838 6.648 16.9998H3C3.064 15.6878 3.136 14.2878 3.216 12.7998C3.312 11.3118 3.408 9.83178 3.504 8.35978C3.616 6.87178 3.736 5.44778 3.864 4.08778C4.008 2.71178 4.16 1.47178 4.32 0.367782H7.896Z" fill="black"/>
<path d="M36.1551 16.9998C35.9791 16.4238 35.7791 15.8318 35.5551 15.2238C35.3471 14.6158 35.1391 14.0078 34.9311 13.3998H28.4511C28.2431 14.0078 28.0271 14.6158 27.8031 15.2238C27.5951 15.8318 27.4031 16.4238 27.2271 16.9998H23.3391C23.9631 15.2078 24.5551 13.5518 25.1151 12.0318C25.6751 10.5118 26.2191 9.07978 26.7471 7.73578C27.2911 6.39178 27.8191 5.11978 28.3311 3.91978C28.8591 2.70378 29.4031 1.51978 29.9631 0.367782H33.5391C34.0831 1.51978 34.6191 2.70378 35.1471 3.91978C35.6751 5.11978 36.2031 6.39178 36.7311 7.73578C37.2751 9.07978 37.8271 10.5118 38.3871 12.0318C38.9471 13.5518 39.5391 15.2078 40.1631 16.9998H36.1551ZM31.6671 4.13578C31.5871 4.37578 31.4671 4.70378 31.3071 5.11978C31.1471 5.53578 30.9631 6.01578 30.7551 6.55978C30.5471 7.10378 30.3151 7.70378 30.0591 8.35978C29.8191 9.01578 29.5711 9.70378 29.3151 10.4238H34.0431C33.7871 9.70378 33.5391 9.01578 33.2991 8.35978C33.0591 7.70378 32.8271 7.10378 32.6031 6.55978C32.3951 6.01578 32.2111 5.53578 32.0511 5.11978C31.8911 4.70378 31.7631 4.37578 31.6671 4.13578Z" fill="black"/>
<path d="M47.1879 0.175781C49.6839 0.175781 51.5959 0.623781 52.9239 1.51978C54.2519 2.39978 54.9159 3.77578 54.9159 5.64778C54.9159 6.81578 54.6439 7.76778 54.0999 8.50378C53.5719 9.22378 52.8039 9.79178 51.7959 10.2078C52.1319 10.6238 52.4839 11.1038 52.8519 11.6478C53.2199 12.1758 53.5799 12.7358 53.9319 13.3278C54.2999 13.9038 54.6519 14.5118 54.9879 15.1518C55.3239 15.7758 55.6359 16.3918 55.9239 16.9998H51.7239C51.4199 16.4558 51.1079 15.9038 50.7879 15.3438C50.4839 14.7838 50.1639 14.2398 49.8279 13.7118C49.5079 13.1838 49.1879 12.6878 48.8679 12.2238C48.5479 11.7438 48.2279 11.3118 47.9079 10.9278H46.0599V16.9998H42.3159V0.607781C43.1319 0.447782 43.9719 0.335782 44.8359 0.271781C45.7159 0.207781 46.4999 0.175781 47.1879 0.175781ZM47.4039 3.36778C47.1319 3.36778 46.8839 3.37578 46.6599 3.39178C46.4519 3.40778 46.2519 3.42378 46.0599 3.43978V7.95178H47.1159C48.5239 7.95178 49.5319 7.77578 50.1399 7.42378C50.7479 7.07178 51.0519 6.47178 51.0519 5.62378C51.0519 4.80778 50.7399 4.23178 50.1159 3.89578C49.5079 3.54378 48.6039 3.36778 47.4039 3.36778Z" fill="black"/>
<path d="M68.1397 16.9998C67.8037 16.4558 67.4037 15.8718 66.9398 15.2478C66.4918 14.6078 65.9958 13.9758 65.4518 13.3518C64.9238 12.7118 64.3717 12.1038 63.7957 11.5278C63.2197 10.9358 62.6437 10.4158 62.0677 9.96778V16.9998H58.3237V0.367782H62.0677V6.65578C63.0438 5.63178 64.0198 4.56778 64.9958 3.46378C65.9878 2.34378 66.9078 1.31178 67.7558 0.367782H72.1958C71.0598 1.71178 69.9157 3.00778 68.7637 4.25578C67.6277 5.50378 66.4277 6.75978 65.1637 8.02378C66.4917 9.12778 67.7718 10.4398 69.0038 11.9598C70.2518 13.4798 71.4437 15.1598 72.5798 16.9998H68.1397Z" fill="black"/>
<path d="M4.744 66.968C4.92 66.984 5.12 67 5.344 67.016C5.584 67.016 5.864 67.016 6.184 67.016C8.056 67.016 9.44 66.544 10.336 65.6C11.248 64.656 11.704 63.352 11.704 61.688C11.704 59.944 11.272 58.624 10.408 57.728C9.544 56.832 8.176 56.384 6.304 56.384C6.048 56.384 5.784 56.392 5.512 56.408C5.24 56.408 4.984 56.424 4.744 56.456V66.968ZM15.568 61.688C15.568 63.128 15.344 64.384 14.896 65.456C14.448 66.528 13.808 67.416 12.976 68.12C12.16 68.824 11.16 69.352 9.976 69.704C8.792 70.056 7.464 70.232 5.992 70.232C5.32 70.232 4.536 70.2 3.64 70.136C2.744 70.088 1.864 69.976 1 69.8V53.6C1.864 53.44 2.76 53.336 3.688 53.288C4.632 53.224 5.44 53.192 6.112 53.192C7.536 53.192 8.824 53.352 9.976 53.672C11.144 53.992 12.144 54.496 12.976 55.184C13.808 55.872 14.448 56.752 14.896 57.824C15.344 58.896 15.568 60.184 15.568 61.688Z" fill="black"/>
<path d="M21.8393 61.688C21.8393 62.504 21.9353 63.24 22.1273 63.896C22.3353 64.552 22.6233 65.12 22.9913 65.6C23.3753 66.064 23.8393 66.424 24.3833 66.68C24.9273 66.936 25.5513 67.064 26.2553 67.064C26.9433 67.064 27.5593 66.936 28.1033 66.68C28.6633 66.424 29.1273 66.064 29.4953 65.6C29.8793 65.12 30.1673 64.552 30.3593 63.896C30.5673 63.24 30.6713 62.504 30.6713 61.688C30.6713 60.872 30.5673 60.136 30.3593 59.48C30.1673 58.808 29.8793 58.24 29.4953 57.776C29.1273 57.296 28.6633 56.928 28.1033 56.672C27.5593 56.416 26.9433 56.288 26.2553 56.288C25.5513 56.288 24.9273 56.424 24.3833 56.696C23.8393 56.952 23.3753 57.32 22.9913 57.8C22.6233 58.264 22.3353 58.832 22.1273 59.504C21.9353 60.16 21.8393 60.888 21.8393 61.688ZM34.5353 61.688C34.5353 63.112 34.3193 64.368 33.8873 65.456C33.4713 66.528 32.8953 67.432 32.1593 68.168C31.4233 68.888 30.5433 69.432 29.5193 69.8C28.5113 70.168 27.4233 70.352 26.2553 70.352C25.1193 70.352 24.0473 70.168 23.0393 69.8C22.0313 69.432 21.1513 68.888 20.3993 68.168C19.6473 67.432 19.0553 66.528 18.6233 65.456C18.1913 64.368 17.9753 63.112 17.9753 61.688C17.9753 60.264 18.1993 59.016 18.6473 57.944C19.0953 56.856 19.6953 55.944 20.4473 55.208C21.2153 54.472 22.0953 53.92 23.0873 53.552C24.0953 53.184 25.1513 53 26.2553 53C27.3913 53 28.4633 53.184 29.4713 53.552C30.4793 53.92 31.3593 54.472 32.1113 55.208C32.8633 55.944 33.4553 56.856 33.8873 57.944C34.3193 59.016 34.5353 60.264 34.5353 61.688Z" fill="black"/>
<path d="M48.5819 55.16C48.7739 55.816 48.9819 56.56 49.2059 57.392C49.4459 58.208 49.6939 59.056 49.9499 59.936C50.2219 60.816 50.4939 61.696 50.7659 62.576C51.0379 63.456 51.3019 64.272 51.5579 65.024C51.7659 64.208 51.9739 63.32 52.1819 62.36C52.4059 61.4 52.6139 60.408 52.8059 59.384C52.9979 58.36 53.1819 57.344 53.3579 56.336C53.5499 55.312 53.7259 54.328 53.8859 53.384H57.7739C57.2139 56.168 56.5659 58.992 55.8299 61.856C55.1099 64.72 54.3259 67.44 53.4779 70.016H50.0459C49.4859 68.48 48.9419 66.872 48.4139 65.192C47.8859 63.496 47.3659 61.8 46.8539 60.104C46.3419 61.8 45.8299 63.496 45.3179 65.192C44.8059 66.872 44.2699 68.48 43.7099 70.016H40.2779C39.4299 67.44 38.6379 64.72 37.9019 61.856C37.1819 58.992 36.5419 56.168 35.9819 53.384H40.0379C40.1979 54.328 40.3739 55.312 40.5659 56.336C40.7579 57.344 40.9579 58.36 41.1659 59.384C41.3739 60.408 41.5819 61.4 41.7899 62.36C42.0139 63.32 42.2379 64.208 42.4619 65.024C42.7499 64.24 43.0299 63.408 43.3019 62.528C43.5739 61.648 43.8379 60.768 44.0939 59.888C44.3499 59.008 44.5819 58.16 44.7899 57.344C45.0139 56.528 45.2139 55.8 45.3899 55.16H48.5819Z" fill="black"/>
<path d="M71.3397 70.016C70.2677 68.112 69.1077 66.232 67.8597 64.376C66.6117 62.52 65.2837 60.768 63.8757 59.12V70.016H60.1797V53.384H63.2277C63.7557 53.912 64.3397 54.56 64.9797 55.328C65.6197 56.096 66.2677 56.92 66.9237 57.8C67.5957 58.664 68.2597 59.568 68.9157 60.512C69.5717 61.44 70.1877 62.336 70.7637 63.2V53.384H74.4837V70.016H71.3397Z" fill="black"/>
<rect x="0.5" y="20.5" width="75" height="29" rx="4.5" stroke="black"/>
<path d="M13.8993 34.099L13.8993 33.599L13.3993 33.599L9.68646 33.599L16.7281 26.5546L23.7492 33.599L20.021 33.599L19.521 33.599L19.521 34.099L19.521 43.1636L13.8993 43.1636L13.8993 34.099ZM9.46142 33.8241L9.46143 33.8241C9.46143 33.8241 9.46142 33.8241 9.46142 33.8241Z" stroke="black"/>
<rect x="54.4353" y="41" width="12" height="2" fill="#F32B43"/>
</svg>
